<svg id="pata" width="33" height="33" viewBox="0 0 33 33" fill="none" xmlns="http://www.w3.org/2000/svg">
<path d="M12.2379 4.12768C12.0938 4.11946 11.9502 4.1291 11.8055 4.15454C10.2793 4.40616 9.36891 6.35574 9.68929 8.68774C9.87629 10.0449 10.4655 11.2349 11.2657 11.8674C11.6906 12.2016 12.1543 12.375 12.6246 12.375C12.7305 12.375 12.8369 12.366 12.9442 12.3481C14.4704 12.0965 15.3808 10.1469 15.0604 7.81494C14.8734 6.45781 14.2869 5.26775 13.4867 4.63525C13.0958 4.32691 12.6701 4.15237 12.2379 4.12768ZM20.7591 4.13037C20.326 4.15622 19.9028 4.32422 19.513 4.63257C18.7128 5.26507 18.1249 6.45375 17.9393 7.81225C17.6203 10.1456 18.5279 12.0965 20.0528 12.3481C20.1601 12.3646 20.2678 12.375 20.3751 12.375C20.8467 12.375 21.3118 12.2016 21.7367 11.8674C22.5369 11.2349 23.1248 10.0462 23.3104 8.68774C23.6294 6.35437 22.7204 4.40348 21.1942 4.15185C21.0484 4.12848 20.9035 4.12175 20.7591 4.13037ZM6.39144 11C6.21446 11.0078 6.03918 11.0377 5.86507 11.0913C5.2587 11.2811 4.75504 11.7382 4.44979 12.3804C4.05516 13.2122 4.01774 14.2752 4.34774 15.2969C4.84961 16.8534 6.05162 17.875 7.25887 17.875C7.46924 17.875 7.67835 17.8443 7.8846 17.781C8.49098 17.5913 8.99463 17.1341 9.29988 16.4919C9.69451 15.6601 9.73194 14.5971 9.40194 13.5754C8.88579 11.9777 7.63028 10.9455 6.39144 11ZM26.6055 11C25.3647 10.9462 24.1139 11.9765 23.5977 13.5754C23.2677 14.5957 23.3038 15.6601 23.6998 16.4919C24.005 17.1341 24.5087 17.5913 25.1151 17.781C25.3213 17.8443 25.5318 17.875 25.7408 17.875C26.9481 17.875 28.1487 16.8521 28.6519 15.2942C28.9819 14.2739 28.9459 13.2122 28.5499 12.3804C28.2446 11.7382 27.741 11.2811 27.1346 11.0913C26.96 11.0379 26.7828 11.0077 26.6055 11ZM16.4998 13.75C14.898 13.75 13.4205 15.231 12.4608 17.6387C11.7416 19.4399 10.3173 20.8342 8.61507 21.7637C7.08745 22.5969 6.87484 23.5362 6.87484 24.2773C6.87484 27.2528 11.7327 28.8723 16.4998 28.8723C21.267 28.8723 26.1248 27.2528 26.1248 24.2773C26.1248 23.5362 25.9122 22.5956 24.3846 21.761C22.681 20.8329 21.258 19.4399 20.5389 17.6387C19.5791 15.2324 18.1017 13.75 16.4998 13.75Z" fill="#0000FF"/>
</svg>
