<svg xmlns="http://www.w3.org/2000/svg" xmlns:xlink="http://www.w3.org/1999/xlink" viewBox="0,0,256,256" width="20px" height="20px"><g fill="none" fill-rule="nonzero" stroke="none" stroke-width="1" stroke-linecap="butt" stroke-linejoin="miter" stroke-miterlimit="10" stroke-dasharray="" stroke-dashoffset="0" font-family="none" font-weight="none" font-size="none" text-anchor="none" style="mix-blend-mode: normal"><g transform="translate(280.93323,40.72395) rotate(105) scale(3.2,3.2)"><path d="M2.608,77.392c0.675,-3.966 4.273,-23.91 9.189,-28.825c2.623,-2.623 6.109,-4.067 9.818,-4.067c3.709,0 7.195,1.444 9.818,4.067c2.623,2.623 4.067,6.109 4.067,9.818c0,3.708 -1.444,7.195 -4.067,9.818c-4.915,4.916 -24.859,8.514 -28.825,9.189z" fill="#5800ff"></path><path d="M21.615,45c3.575,0 6.936,1.392 9.464,3.92c5.219,5.219 5.219,13.71 0,18.929c-4.575,4.575 -22.697,8.025 -27.859,8.93c0.378,-2.162 1.202,-6.598 2.369,-11.34c2.126,-8.64 4.395,-14.352 6.561,-16.519c2.529,-2.528 5.89,-3.92 9.465,-3.92M21.615,44c-3.681,0 -7.363,1.404 -10.171,4.213c-5.618,5.618 -9.444,29.787 -9.444,29.787c0,0 24.169,-3.826 29.787,-9.444c5.618,-5.618 5.618,-14.725 0,-20.343c-2.809,-2.809 -6.49,-4.213 -10.172,-4.213z" fill="#26006d"></path><path d="M50.146,18.478l15.066,-15.763l12.073,12.074l-15.763,15.066z" fill="#5800ff"></path><path d="M65.221,3.43l11.349,11.35l-15.039,14.376l-10.686,-10.686l14.376,-15.04M65.205,2l-15.758,16.486l12.068,12.068l16.485,-15.757l-12.795,-12.797z" fill="#26006d"></path><g><path d="M25.197,44.917l26.229,-28.198l11.854,11.854l-28.199,26.23z" fill="#dcd5f2"></path><path d="M51.439,17.439l11.121,11.121l-27.467,25.548l-9.202,-9.203l25.548,-27.466M51.413,15.999l-26.91,28.931l10.566,10.567l28.931,-26.911l-12.587,-12.587z" fill="#26006d"></path></g></g></g></svg>