<svg width="1399" height="193" viewBox="0 0 1399 193" fill="none" xmlns="http://www.w3.org/2000/svg">
<path d="M0 0H1400V179.535C1344 165.172 1316 165.172 1260 179.535C1204 197.488 1176 197.488 1120 179.535C1064 161.581 1036 161.581 980 179.535C924 197.488 896 197.488 840 179.535C784 161.581 756 161.581 700 179.535C644 197.488 616 197.488 560 179.535C504 161.581 476 161.581 420 179.535C364 197.488 336 197.488 280 179.535C224 161.581 196 161.581 140 179.535C84 197.488 56 197.488 0 179.535" fill="#42C6FF"/>
<path d="M129.634 101.139C127.001 101.139 124.601 100.606 122.434 99.5395C120.301 98.4728 118.534 96.9395 117.134 94.9395L121.684 89.9395C123.051 91.4395 124.318 92.4728 125.484 93.0395C126.651 93.5728 127.951 93.8395 129.384 93.8395C130.451 93.8395 131.401 93.6228 132.234 93.1895C133.068 92.7562 133.718 92.1562 134.184 91.3895C134.684 90.5895 134.934 89.7062 134.934 88.7395C134.934 87.7395 134.684 86.8562 134.184 86.0895C133.718 85.2895 133.068 84.6562 132.234 84.1895C131.434 83.7228 130.501 83.4895 129.434 83.4895C128.668 83.4895 127.951 83.5562 127.284 83.6895C126.618 83.8228 125.901 84.0562 125.134 84.3895C124.401 84.6895 123.518 85.1395 122.484 85.7395L118.884 80.9395L121.034 65.4895H141.134V72.6395H125.084L127.284 69.8395L125.634 80.9395L122.634 79.9395C123.268 79.3728 124.034 78.8728 124.934 78.4395C125.868 78.0062 126.868 77.6562 127.934 77.3895C129.001 77.0895 130.068 76.9395 131.134 76.9395C133.334 76.9395 135.301 77.4562 137.034 78.4895C138.801 79.4895 140.201 80.8895 141.234 82.6895C142.268 84.4895 142.784 86.5562 142.784 88.8895C142.784 91.1895 142.201 93.2728 141.034 95.1395C139.868 96.9728 138.301 98.4395 136.334 99.5395C134.368 100.606 132.134 101.139 129.634 101.139ZM164.885 111.789V74.2395H172.485L172.785 80.1895L171.285 79.7395C171.518 78.6395 172.085 77.6395 172.985 76.7395C173.885 75.8395 175.018 75.1228 176.385 74.5895C177.785 74.0228 179.252 73.7395 180.785 73.7395C183.052 73.7395 185.068 74.3395 186.835 75.5395C188.602 76.7062 189.985 78.3228 190.985 80.3895C192.018 82.4228 192.535 84.7895 192.535 87.4895C192.535 90.1562 192.018 92.5228 190.985 94.5895C189.985 96.6562 188.585 98.2895 186.785 99.4895C185.018 100.656 182.985 101.239 180.685 101.239C179.185 101.239 177.752 100.956 176.385 100.389C175.018 99.8228 173.868 99.0562 172.935 98.0895C172.002 97.1228 171.385 96.0728 171.085 94.9395L172.935 94.2395V111.789H164.885ZM178.735 94.4895C179.935 94.4895 180.985 94.2062 181.885 93.6395C182.785 93.0395 183.485 92.2228 183.985 91.1895C184.485 90.1562 184.735 88.9228 184.735 87.4895C184.735 86.0895 184.485 84.8728 183.985 83.8395C183.485 82.7728 182.785 81.9562 181.885 81.3895C181.018 80.7895 179.968 80.4895 178.735 80.4895C177.502 80.4895 176.435 80.7728 175.535 81.3395C174.635 81.9062 173.935 82.7228 173.435 83.7895C172.935 84.8562 172.685 86.0895 172.685 87.4895C172.685 88.9228 172.935 90.1562 173.435 91.1895C173.935 92.2228 174.635 93.0395 175.535 93.6395C176.435 94.2062 177.502 94.4895 178.735 94.4895ZM197.844 100.789V74.2395H205.444L205.794 82.8895L204.294 81.2395C204.694 79.8062 205.344 78.5228 206.244 77.3895C207.177 76.2562 208.261 75.3562 209.494 74.6895C210.727 74.0228 212.044 73.6895 213.444 73.6895C214.044 73.6895 214.594 73.7395 215.094 73.8395C215.627 73.9395 216.111 74.0562 216.544 74.1895L214.344 83.0395C213.977 82.8062 213.477 82.6228 212.844 82.4895C212.244 82.3228 211.611 82.2395 210.944 82.2395C210.211 82.2395 209.527 82.3728 208.894 82.6395C208.261 82.8728 207.727 83.2228 207.294 83.6895C206.861 84.1562 206.511 84.7062 206.244 85.3395C206.011 85.9728 205.894 86.6895 205.894 87.4895V100.789H197.844ZM231.975 101.289C229.208 101.289 226.741 100.689 224.575 99.4895C222.441 98.2895 220.741 96.6562 219.475 94.5895C218.241 92.5228 217.625 90.1562 217.625 87.4895C217.625 84.8228 218.241 82.4562 219.475 80.3895C220.741 78.3228 222.441 76.6895 224.575 75.4895C226.741 74.2895 229.208 73.6895 231.975 73.6895C234.741 73.6895 237.191 74.2895 239.325 75.4895C241.491 76.6895 243.191 78.3228 244.425 80.3895C245.658 82.4562 246.275 84.8228 246.275 87.4895C246.275 90.1562 245.658 92.5228 244.425 94.5895C243.191 96.6562 241.491 98.2895 239.325 99.4895C237.191 100.689 234.741 101.289 231.975 101.289ZM231.975 94.3895C233.175 94.3895 234.241 94.0895 235.175 93.4895C236.108 92.8895 236.841 92.0728 237.375 91.0395C237.908 90.0062 238.158 88.8228 238.125 87.4895C238.158 86.1562 237.908 84.9728 237.375 83.9395C236.841 82.8728 236.108 82.0395 235.175 81.4395C234.241 80.8395 233.175 80.5395 231.975 80.5395C230.775 80.5395 229.691 80.8395 228.725 81.4395C227.791 82.0395 227.058 82.8728 226.525 83.9395C225.991 84.9728 225.741 86.1562 225.775 87.4895C225.741 88.8228 225.991 90.0062 226.525 91.0395C227.058 92.0728 227.791 92.8895 228.725 93.4895C229.691 94.0895 230.775 94.3895 231.975 94.3895ZM258.924 100.789L247.824 74.2395H256.674L263.274 94.0895L261.324 94.2895L268.124 74.2395H276.874L265.224 100.789H258.924ZM290.115 101.239C287.881 101.239 285.881 100.656 284.115 99.4895C282.381 98.2895 280.998 96.6562 279.965 94.5895C278.931 92.4895 278.415 90.1228 278.415 87.4895C278.415 84.7895 278.931 82.4062 279.965 80.3395C280.998 78.2728 282.415 76.6562 284.215 75.4895C286.015 74.2895 288.065 73.6895 290.365 73.6895C291.631 73.6895 292.781 73.8728 293.815 74.2395C294.881 74.6062 295.815 75.1228 296.615 75.7895C297.415 76.4228 298.098 77.1728 298.665 78.0395C299.231 78.8728 299.648 79.7728 299.915 80.7395L298.265 80.5395V74.2395H306.215V100.789H298.115V94.3895L299.915 94.3395C299.648 95.2728 299.215 96.1562 298.615 96.9895C298.015 97.8228 297.281 98.5562 296.415 99.1895C295.548 99.8228 294.581 100.323 293.515 100.689C292.448 101.056 291.315 101.239 290.115 101.239ZM292.315 94.4895C293.548 94.4895 294.615 94.2062 295.515 93.6395C296.415 93.0728 297.115 92.2728 297.615 91.2395C298.115 90.1728 298.365 88.9228 298.365 87.4895C298.365 86.0562 298.115 84.8228 297.615 83.7895C297.115 82.7228 296.415 81.9062 295.515 81.3395C294.615 80.7395 293.548 80.4395 292.315 80.4395C291.115 80.4395 290.065 80.7395 289.165 81.3395C288.298 81.9062 287.615 82.7228 287.115 83.7895C286.615 84.8228 286.365 86.0562 286.365 87.4895C286.365 88.9228 286.615 90.1728 287.115 91.2395C287.615 92.2728 288.298 93.0728 289.165 93.6395C290.065 94.2062 291.115 94.4895 292.315 94.4895ZM322.224 101.289C319.624 101.289 317.324 100.873 315.324 100.039C313.357 99.2062 311.79 98.0895 310.624 96.6895L315.474 92.4895C316.507 93.5228 317.674 94.2895 318.974 94.7895C320.274 95.2562 321.507 95.4895 322.674 95.4895C323.14 95.4895 323.557 95.4395 323.924 95.3395C324.29 95.2395 324.59 95.1062 324.824 94.9395C325.09 94.7395 325.29 94.5228 325.424 94.2895C325.557 94.0228 325.624 93.7228 325.624 93.3895C325.624 92.7228 325.324 92.2062 324.724 91.8395C324.424 91.6728 323.924 91.4728 323.224 91.2395C322.524 91.0062 321.624 90.7395 320.524 90.4395C318.957 90.0395 317.59 89.5728 316.424 89.0395C315.29 88.4728 314.357 87.8228 313.624 87.0895C312.957 86.3895 312.44 85.6228 312.074 84.7895C311.707 83.9228 311.524 82.9562 311.524 81.8895C311.524 80.6562 311.807 79.5395 312.374 78.5395C312.974 77.5395 313.757 76.6728 314.724 75.9395C315.724 75.2062 316.857 74.6562 318.124 74.2895C319.424 73.8895 320.757 73.6895 322.124 73.6895C323.59 73.6895 324.99 73.8562 326.324 74.1895C327.657 74.5228 328.89 74.9895 330.024 75.5895C331.19 76.1895 332.224 76.9062 333.124 77.7395L328.924 82.4395C328.324 81.8728 327.64 81.3728 326.874 80.9395C326.14 80.4728 325.374 80.1062 324.574 79.8395C323.774 79.5728 323.04 79.4395 322.374 79.4395C321.874 79.4395 321.424 79.4895 321.024 79.5895C320.657 79.6562 320.34 79.7895 320.074 79.9895C319.807 80.1562 319.607 80.3728 319.474 80.6395C319.34 80.8728 319.274 81.1562 319.274 81.4895C319.274 81.8228 319.357 82.1395 319.524 82.4395C319.724 82.7395 319.99 82.9895 320.324 83.1895C320.657 83.3895 321.19 83.6228 321.924 83.8895C322.657 84.1228 323.657 84.4228 324.924 84.7895C326.49 85.2228 327.84 85.7062 328.974 86.2395C330.107 86.7728 331.007 87.4062 331.674 88.1395C332.207 88.7062 332.607 89.3728 332.874 90.1395C333.14 90.8728 333.274 91.6728 333.274 92.5395C333.274 94.2395 332.79 95.7562 331.824 97.0895C330.89 98.3895 329.59 99.4228 327.924 100.189C326.257 100.923 324.357 101.289 322.224 101.289ZM362.195 100.789L351.095 74.2395H359.945L366.545 94.0895L364.595 94.2895L371.395 74.2395H380.145L368.495 100.789H362.195ZM396.236 101.289C393.303 101.289 390.753 100.706 388.586 99.5395C386.419 98.3395 384.736 96.7228 383.536 94.6895C382.336 92.6228 381.736 90.2728 381.736 87.6395C381.736 85.6062 382.069 83.7395 382.736 82.0395C383.403 80.3395 384.336 78.8728 385.536 77.6395C386.736 76.3728 388.153 75.4062 389.786 74.7395C391.453 74.0395 393.269 73.6895 395.236 73.6895C397.103 73.6895 398.803 74.0228 400.336 74.6895C401.903 75.3562 403.253 76.2895 404.386 77.4895C405.519 78.6895 406.386 80.1062 406.986 81.7395C407.586 83.3728 407.853 85.1562 407.786 87.0895L407.736 89.2395H386.586L385.436 84.7395H401.236L400.386 85.6895V84.6895C400.319 83.8562 400.053 83.1228 399.586 82.4895C399.153 81.8228 398.569 81.3062 397.836 80.9395C397.103 80.5728 396.269 80.3895 395.336 80.3895C394.036 80.3895 392.919 80.6562 391.986 81.1895C391.086 81.6895 390.403 82.4395 389.936 83.4395C389.469 84.4062 389.236 85.6062 389.236 87.0395C389.236 88.5062 389.536 89.7895 390.136 90.8895C390.769 91.9562 391.669 92.7895 392.836 93.3895C394.036 93.9895 395.453 94.2895 397.086 94.2895C398.219 94.2895 399.219 94.1228 400.086 93.7895C400.986 93.4562 401.953 92.8895 402.986 92.0895L406.736 97.3895C405.703 98.2895 404.603 99.0228 403.436 99.5895C402.269 100.156 401.069 100.573 399.836 100.839C398.636 101.139 397.436 101.289 396.236 101.289ZM412.883 100.789V74.2395H420.483L420.833 82.8895L419.333 81.2395C419.733 79.8062 420.383 78.5228 421.283 77.3895C422.216 76.2562 423.3 75.3562 424.533 74.6895C425.766 74.0228 427.083 73.6895 428.483 73.6895C429.083 73.6895 429.633 73.7395 430.133 73.8395C430.666 73.9395 431.15 74.0562 431.583 74.1895L429.383 83.0395C429.016 82.8062 428.516 82.6228 427.883 82.4895C427.283 82.3228 426.65 82.2395 425.983 82.2395C425.25 82.2395 424.566 82.3728 423.933 82.6395C423.3 82.8728 422.766 83.2228 422.333 83.6895C421.9 84.1562 421.55 84.7062 421.283 85.3395C421.05 85.9728 420.933 86.6895 420.933 87.4895V100.789H412.883ZM435.287 100.789V74.2395H443.337V100.789H435.287ZM435.337 71.3395L432.987 67.6895L441.937 60.5895L445.587 65.8395L435.337 71.3395ZM460.14 101.339C457.84 101.339 455.79 100.756 453.99 99.5895C452.223 98.3895 450.823 96.7562 449.79 94.6895C448.757 92.5895 448.24 90.2062 448.24 87.5395C448.24 84.8728 448.757 82.5062 449.79 80.4395C450.823 78.3395 452.24 76.6895 454.04 75.4895C455.84 74.2895 457.907 73.6895 460.24 73.6895C461.44 73.6895 462.59 73.8728 463.69 74.2395C464.79 74.6062 465.79 75.1062 466.69 75.7395C467.59 76.3728 468.323 77.1062 468.89 77.9395C469.457 78.7395 469.79 79.5728 469.89 80.4395L467.99 80.8895V63.7895H476.04V100.789H468.59L468.14 94.7395L469.74 94.9895C469.64 95.8228 469.307 96.6228 468.74 97.3895C468.207 98.1562 467.507 98.8395 466.64 99.4395C465.773 100.006 464.773 100.456 463.64 100.789C462.54 101.156 461.373 101.339 460.14 101.339ZM462.19 94.6895C463.423 94.6895 464.49 94.3895 465.39 93.7895C466.29 93.1895 466.973 92.3562 467.44 91.2895C467.94 90.2228 468.19 88.9728 468.19 87.5395C468.19 86.0728 467.94 84.8062 467.44 83.7395C466.973 82.6728 466.29 81.8395 465.39 81.2395C464.49 80.6395 463.423 80.3395 462.19 80.3395C460.957 80.3395 459.89 80.6395 458.99 81.2395C458.123 81.8395 457.44 82.6728 456.94 83.7395C456.44 84.8062 456.19 86.0728 456.19 87.5395C456.19 88.9728 456.44 90.2228 456.94 91.2895C457.44 92.3562 458.123 93.1895 458.99 93.7895C459.89 94.3895 460.957 94.6895 462.19 94.6895ZM483.255 100.789V74.2395H491.255V100.789H483.255ZM487.255 68.9895C485.755 68.9895 484.572 68.6395 483.705 67.9395C482.872 67.2062 482.455 66.1728 482.455 64.8395C482.455 63.6395 482.888 62.6562 483.755 61.8895C484.622 61.1228 485.788 60.7395 487.255 60.7395C488.755 60.7395 489.922 61.1062 490.755 61.8395C491.588 62.5395 492.005 63.5395 492.005 64.8395C492.005 66.0728 491.572 67.0728 490.705 67.8395C489.872 68.6062 488.722 68.9895 487.255 68.9895ZM510.422 101.289C507.855 101.289 505.555 100.689 503.522 99.4895C501.488 98.2895 499.872 96.6562 498.672 94.5895C497.505 92.4895 496.922 90.1228 496.922 87.4895C496.922 84.8562 497.505 82.5062 498.672 80.4395C499.872 78.3395 501.488 76.6895 503.522 75.4895C505.555 74.2895 507.855 73.6895 510.422 73.6895C512.788 73.6895 514.955 74.1062 516.922 74.9395C518.922 75.7728 520.505 76.9395 521.672 78.4395L517.322 83.6395C516.855 83.1062 516.305 82.6062 515.672 82.1395C515.038 81.6728 514.338 81.3062 513.572 81.0395C512.805 80.7728 512.005 80.6395 511.172 80.6395C509.905 80.6395 508.788 80.9395 507.822 81.5395C506.855 82.1062 506.105 82.9062 505.572 83.9395C505.038 84.9728 504.772 86.1562 504.772 87.4895C504.772 88.7562 505.038 89.9062 505.572 90.9395C506.138 91.9728 506.905 92.7895 507.872 93.3895C508.838 93.9895 509.938 94.2895 511.172 94.2895C512.038 94.2895 512.838 94.1895 513.572 93.9895C514.305 93.7562 514.972 93.4228 515.572 92.9895C516.205 92.5562 516.788 92.0228 517.322 91.3895L521.622 96.6395C520.488 98.0728 518.905 99.2062 516.872 100.039C514.872 100.873 512.722 101.289 510.422 101.289ZM535.818 101.239C533.584 101.239 531.584 100.656 529.818 99.4895C528.084 98.2895 526.701 96.6562 525.668 94.5895C524.634 92.4895 524.118 90.1228 524.118 87.4895C524.118 84.7895 524.634 82.4062 525.668 80.3395C526.701 78.2728 528.118 76.6562 529.918 75.4895C531.718 74.2895 533.768 73.6895 536.068 73.6895C537.334 73.6895 538.484 73.8728 539.518 74.2395C540.584 74.6062 541.518 75.1228 542.318 75.7895C543.118 76.4228 543.801 77.1728 544.368 78.0395C544.934 78.8728 545.351 79.7728 545.618 80.7395L543.968 80.5395V74.2395H551.918V100.789H543.818V94.3895L545.618 94.3395C545.351 95.2728 544.918 96.1562 544.318 96.9895C543.718 97.8228 542.984 98.5562 542.118 99.1895C541.251 99.8228 540.284 100.323 539.218 100.689C538.151 101.056 537.018 101.239 535.818 101.239ZM538.018 94.4895C539.251 94.4895 540.318 94.2062 541.218 93.6395C542.118 93.0728 542.818 92.2728 543.318 91.2395C543.818 90.1728 544.068 88.9228 544.068 87.4895C544.068 86.0562 543.818 84.8228 543.318 83.7895C542.818 82.7228 542.118 81.9062 541.218 81.3395C540.318 80.7395 539.251 80.4395 538.018 80.4395C536.818 80.4395 535.768 80.7395 534.868 81.3395C534.001 81.9062 533.318 82.7228 532.818 83.7895C532.318 84.8228 532.068 86.0562 532.068 87.4895C532.068 88.9228 532.318 90.1728 532.818 91.2395C533.318 92.2728 534.001 93.0728 534.868 93.6395C535.768 94.2062 536.818 94.4895 538.018 94.4895ZM567.927 101.289C565.327 101.289 563.027 100.873 561.027 100.039C559.06 99.2062 557.493 98.0895 556.327 96.6895L561.177 92.4895C562.21 93.5228 563.377 94.2895 564.677 94.7895C565.977 95.2562 567.21 95.4895 568.377 95.4895C568.843 95.4895 569.26 95.4395 569.627 95.3395C569.993 95.2395 570.293 95.1062 570.527 94.9395C570.793 94.7395 570.993 94.5228 571.127 94.2895C571.26 94.0228 571.327 93.7228 571.327 93.3895C571.327 92.7228 571.027 92.2062 570.427 91.8395C570.127 91.6728 569.627 91.4728 568.927 91.2395C568.227 91.0062 567.327 90.7395 566.227 90.4395C564.66 90.0395 563.293 89.5728 562.127 89.0395C560.993 88.4728 560.06 87.8228 559.327 87.0895C558.66 86.3895 558.143 85.6228 557.777 84.7895C557.41 83.9228 557.227 82.9562 557.227 81.8895C557.227 80.6562 557.51 79.5395 558.077 78.5395C558.677 77.5395 559.46 76.6728 560.427 75.9395C561.427 75.2062 562.56 74.6562 563.827 74.2895C565.127 73.8895 566.46 73.6895 567.827 73.6895C569.293 73.6895 570.693 73.8562 572.027 74.1895C573.36 74.5228 574.593 74.9895 575.727 75.5895C576.893 76.1895 577.927 76.9062 578.827 77.7395L574.627 82.4395C574.027 81.8728 573.343 81.3728 572.577 80.9395C571.843 80.4728 571.077 80.1062 570.277 79.8395C569.477 79.5728 568.743 79.4395 568.077 79.4395C567.577 79.4395 567.127 79.4895 566.727 79.5895C566.36 79.6562 566.043 79.7895 565.777 79.9895C565.51 80.1562 565.31 80.3728 565.177 80.6395C565.043 80.8728 564.977 81.1562 564.977 81.4895C564.977 81.8228 565.06 82.1395 565.227 82.4395C565.427 82.7395 565.693 82.9895 566.027 83.1895C566.36 83.3895 566.893 83.6228 567.627 83.8895C568.36 84.1228 569.36 84.4228 570.627 84.7895C572.193 85.2228 573.543 85.7062 574.677 86.2395C575.81 86.7728 576.71 87.4062 577.377 88.1395C577.91 88.7062 578.31 89.3728 578.577 90.1395C578.843 90.8728 578.977 91.6728 578.977 92.5395C578.977 94.2395 578.493 95.7562 577.527 97.0895C576.593 98.3895 575.293 99.4228 573.627 100.189C571.96 100.923 570.06 101.289 567.927 101.289ZM586.583 101.339C585.216 101.339 584.149 100.956 583.383 100.189C582.649 99.4228 582.283 98.3228 582.283 96.8895C582.283 95.5562 582.683 94.4728 583.483 93.6395C584.283 92.8062 585.316 92.3895 586.583 92.3895C587.949 92.3895 589.016 92.7895 589.783 93.5895C590.549 94.3562 590.933 95.4562 590.933 96.8895C590.933 98.1895 590.533 99.2562 589.733 100.089C588.933 100.923 587.883 101.339 586.583 101.339ZM586.583 82.6895C585.216 82.6895 584.149 82.3062 583.383 81.5395C582.649 80.7728 582.283 79.6728 582.283 78.2395C582.283 76.9062 582.683 75.8228 583.483 74.9895C584.283 74.1562 585.316 73.7395 586.583 73.7395C587.949 73.7395 589.016 74.1395 589.783 74.9395C590.549 75.7062 590.933 76.8062 590.933 78.2395C590.933 79.5395 590.533 80.6062 589.733 81.4395C588.933 82.2728 587.883 82.6895 586.583 82.6895Z" fill="white"/>
</svg>
