<svg enable-background="new 0 0 442.302 373.932" height="374" viewBox="0 0 442.302 373.932" width="443" xmlns="http://www.w3.org/2000/svg"><path d="m419.742 307.793c-50.15 78.445-179.531 85.314-288.98 15.342-75.216-48.086-117.335-120.409-126.728-185.658-17.657-122.653 122.33-38.782 151.724-61.217 20.425-15.589-12.558-43.001 9.284-65.056 20.95-21.155 101.054-.589 147.33 27.858 110.667 68.028 157.52 190.287 107.37 268.731z" fill="#fff"/><path d="m285.456 373.937c-51.644 0-106.572-17.07-156.041-48.695-69.569-44.477-117.365-114.536-127.855-187.409-4.087-28.39-.236-47.79 11.771-59.308 19.458-18.666 55.963-11.851 88.171-5.835 22.646 4.229 44.039 8.224 52.739 1.584 8.177-6.241 6.646-14.123 3.47-26.466-3.136-12.187-6.689-25.999 5.554-38.362 13.885-14.018 47.602-9.374 66.465-5.357 28.801 6.132 60.969 18.717 83.951 32.844 32.53 19.997 60.112 44.76 81.978 73.602 20.754 27.375 35.328 57.564 42.147 87.304 9.532 41.573 4.015 80.061-15.958 111.302-24.701 38.637-68.819 61.535-124.227 64.477-4.029.213-8.09.319-12.165.319zm-233.747-302.59c-14.072 0-26.5 2.712-34.917 10.787-10.76 10.321-14.124 28.308-10.283 54.987 10.285 71.454 57.238 140.205 125.6 183.908 108.112 69.118 236.199 62.574 285.526-14.583 19.233-30.085 24.523-67.255 15.297-107.492-13.848-60.39-59.406-119.366-121.87-157.763-46.736-28.73-125.08-47.579-144.244-28.228-10.247 10.347-7.205 22.167-4.265 33.597 2.925 11.366 5.948 23.118-5.278 31.687-10.466 7.988-31.885 3.989-56.69-.644-16.192-3.022-33.513-6.256-48.876-6.256z"/><ellipse cx="264.945" cy="99.561" fill="#ff6996" rx="25.48" ry="35.28" transform="matrix(.5386 -.8425 .8425 .5386 38.3511 269.1596)"/><ellipse cx="365.58" cy="220.324" fill="#fbb348" rx="27.012" ry="37.401" transform="matrix(.5386 -.8425 .8425 .5386 -16.9667 409.6638)"/><ellipse cx="235.128" cy="269.323" fill="#ef4910" rx="27.012" ry="37.401" transform="matrix(.5087 -.861 .861 .5087 -116.3515 334.7641)"/><ellipse cx="122.408" cy="166.541" fill="#92acef" rx="27.012" ry="37.401" transform="matrix(.5386 -.8425 .8425 .5386 -83.8428 179.9689)"/></svg>