<svg xmlns="http://www.w3.org/2000/svg" xmlns:xlink="http://www.w3.org/1999/xlink" viewBox="0,0,256,256" width="20px" height="20px"><g fill="none" fill-rule="nonzero" stroke="none" stroke-width="1" stroke-linecap="butt" stroke-linejoin="miter" stroke-miterlimit="10" stroke-dasharray="" stroke-dashoffset="0" font-family="none" font-weight="none" font-size="none" text-anchor="none" style="mix-blend-mode: normal"><g transform="translate(-13.94665,65.81985) rotate(-20) scale(8,8)"><path d="M6,6h-4c-0.55228,0 -1,-0.44772 -1,-1c0,-0.55228 0.44772,-1 1,-1h4c0.55228,0 1,0.44772 1,1c0,0.55228 -0.44772,1 -1,1z" fill="#94a5d6"></path><path d="M17,20h-2v-4c-0.01828,-0.45917 0.27874,-0.87169 0.72,-1l12.55,-3.59c0.44524,-0.12451 0.74708,-0.538 0.73,-1v-3.41c0,-0.55228 -0.44772,-1 -1,-1h-2v-2h2c1.65685,0 3,1.34315 3,3v3.49c-0.00257,1.33891 -0.89207,2.51403 -2.18,2.88l-11.82,3.38z" fill="#94a5d6"></path><rect x="5" y="1" width="22" height="8" rx="1" ry="1" fill="#5800ff"></rect><path d="M7,4c0,-0.55228 0.44772,-1 1,-1h19v-1c0,-0.55228 -0.44772,-1 -1,-1h-20c-0.55228,0 -1,0.44772 -1,1v6c0,0.55228 0.44772,1 1,1h1z" fill="#3e00b3"></path><path d="M18,19h-4c-0.55228,0 -1,0.44772 -1,1v8c0,1.65685 1.34315,3 3,3c1.65685,0 3,-1.34315 3,-3v-8c0,-0.55228 -0.44772,-1 -1,-1z" fill="#5800ff"></path><path d="M15,28v-8c0,-0.55228 0.44772,-1 1,-1h-2c-0.55228,0 -1,0.44772 -1,1v8c0.00273,0.97242 0.47662,1.88319 1.27138,2.4435c0.79477,0.56031 1.81181,0.70064 2.72862,0.3765c-1.19573,-0.42275 -1.99644,-1.55175 -2,-2.82z" fill="#4400c6"></path></g></g></svg>